<svg width="8288" height="1749" viewBox="0 0 8288 1749" fill="none" xmlns="http://www.w3.org/2000/svg">
<g clip-path="url(#clip0_112_220)">
<path fill-rule="evenodd" clip-rule="evenodd" d="M2022.77 366.29C2074.51 424.874 2101.72 502.107 2098.49 581.223V1012.49H1917.04V620.903C1918.85 577.174 1905.08 534.274 1878.31 500.275C1865.87 485.313 1850.29 473.466 1832.74 465.622C1815.2 457.782 1796.15 454.154 1777.04 455.014C1663.82 455.014 1607.21 536.297 1607.21 698.859V1012.49H1424.8V304.481H1607.21V368.483C1635.78 339.88 1669.71 317.577 1706.94 302.938C1744.16 288.3 1783.89 281.633 1823.71 283.347C1860.7 281.845 1897.59 288.464 1931.91 302.764C1966.23 317.065 1997.2 338.719 2022.77 366.29Z" fill="white"/>
<path fill-rule="evenodd" clip-rule="evenodd" d="M2329.96 0V1012.47H2511.79V0H2329.96Z" fill="white"/>
<path fill-rule="evenodd" clip-rule="evenodd" d="M3539.79 1012.39H3388.74L3240.03 595.28L3089.76 1012.39H2937.55L2682.52 302.986H2876.16L3020.82 727.272L3168.57 302.986H3310.32L3458.07 728.668L3601.36 302.986H3795.01L3539.79 1012.39Z" fill="white"/>
<path d="M1068.58 1030.56L803.092 1212.99L206.279 884.606L467.892 705.163L749.646 860.284C749.646 798.274 749.646 647.343 749.646 511.761L1068.19 292.441C1068.19 427.224 1068.19 761.789 1068.58 1030.56Z" fill="#8257E5"/>
<path d="M580.936 629.15L290.467 469.641C290.467 533.244 290.467 690.958 290.467 828.532C168.858 912.469 60.0298 987.041 0 1027.91C0 891.336 0 549.395 0 279.231L256.579 102.777L862.302 436.144L580.936 629.15Z" fill="#8257E5"/>
<path fill-rule="evenodd" clip-rule="evenodd" d="M5495.7 746.971V75.4497H5657.59V320.89H6004.81V472.222H5657.59V746.971C5657.59 839.482 5703.89 875.77 5770.69 875.77C5837.49 875.77 5883.57 840.881 5883.57 746.971V728.626H6045.64V746.971C6045.64 938.977 5933.94 1031.49 5770.69 1031.49C5607.44 1031.49 5495.7 938.977 5495.7 746.971ZM4314.13 302.5C4138.68 302.5 4018.81 401.993 4018.81 610.945L4019.19 1013.1H4181.07V611.143C4181.07 498.294 4235.51 458.417 4314.51 458.417C4393.51 458.417 4447.92 498.891 4447.92 611.143V618.123H4608.66V613.736C4608.66 401.993 4489.55 302.5 4314.13 302.5ZM5030.25 302.5C4817.8 302.5 4668.12 456.622 4668.12 666.97C4668.12 877.321 4817.8 1031.44 5030.25 1031.44C5189.43 1031.44 5312 945.909 5362.34 814.114H5189.43C5155.33 858.976 5102.25 879.911 5030.25 879.911C4935.16 879.911 4860.04 826.676 4838.33 725.789H5389.63V666.97C5389.63 456.622 5242.65 302.5 5030.25 302.5ZM5030.25 453.033C5118.71 453.033 5192.13 500.089 5218.06 592.603H4842.4C4868.14 500.686 4941.74 453.033 5030.25 453.033ZM6149.13 320.919V681.004C6149.13 913.685 6282.53 1031.52 6481.22 1031.52C6679.9 1031.52 6813.31 912.286 6813.31 681.004V320.919H6651.42V681.004C6651.42 812.795 6583.26 875.8 6481.22 875.8C6379.17 875.8 6311.01 812.795 6311.01 681.004V320.919H6149.13ZM6946.71 610.945C6946.71 401.993 7066.58 302.5 7242.04 302.5C7417.49 302.5 7536.19 402.19 7536.19 613.736V618.123H7375.45V611.143C7375.45 498.492 7321.04 458.618 7242.23 458.618C7163.42 458.618 7108.82 498.492 7108.82 611.344V1013.1H6946.9L6946.71 610.945ZM7955.45 302.5C7756.58 302.5 7623.17 421.73 7623.17 653.016L7622.41 1013.1H7784.48V653.016C7784.48 521.221 7853.79 458.219 7955.87 458.219C8057.91 458.219 8125.89 521.221 8125.89 653.016V1013.1H8287.96V653.016C8287.96 420.334 8154.33 302.5 7955.45 302.5ZM7368.98 1523.76L7484.67 1642.76L7381.68 1749.03L7131.86 1491.83V1385.56L7381.68 1128.36L7484.67 1234.43L7364.12 1358.68H7899.45C7929.3 1358.6 7958.84 1352.46 7986.36 1340.6C8013.93 1328.74 8038.9 1311.41 8059.93 1289.59C8080.91 1267.77 8097.53 1241.89 8108.82 1213.44C8120.11 1184.99 8125.81 1154.53 8125.62 1123.8V1013.15H8287.92V1123.8C8287.81 1229.95 8246.79 1331.71 8173.83 1406.71C8100.87 1481.71 8001.99 1523.82 7898.88 1523.76H7368.98Z" fill="url(#paint0_linear_112_220)"/>
</g>
<defs>
<linearGradient id="paint0_linear_112_220" x1="4142.56" y1="1438.61" x2="8185.73" y2="1438.61" gradientUnits="userSpaceOnUse">
<stop stop-color="#8257E5"/>
<stop offset="0.53" stop-color="#D72891"/>
<stop offset="1" stop-color="#F1594B"/>
</linearGradient>
<clipPath id="clip0_112_220">
<rect width="8288" height="1749" fill="white"/>
</clipPath>
</defs>
</svg>
